<svg width="18" height="18" viewBox="0 0 18 18" fill="none" xmlns="http://www.w3.org/2000/svg">
<path d="M15.2222 1H2.77778C1.79594 1 1 1.79594 1 2.77778V15.2222C1 16.2041 1.79594 17 2.77778 17H15.2222C16.2041 17 17 16.2041 17 15.2222V2.77778C17 1.79594 16.2041 1 15.2222 1Z" stroke="#67727E" stroke-linecap="round" stroke-linejoin="round"/>
<path d="M8.35073 11.2413C8.16965 11.4732 7.91865 11.6488 7.59774 11.7682C7.27682 11.8875 6.91236 11.9472 6.50435 11.9472C6.08487 11.9472 5.71353 11.8537 5.39033 11.6668C5.06712 11.48 4.81727 11.2131 4.64077 10.8664C4.46656 10.5174 4.37602 10.111 4.36914 9.64713V9.26211C4.36914 8.51907 4.55023 7.93928 4.9124 7.52273C5.27457 7.10393 5.78 6.89453 6.4287 6.89453C6.98571 6.89453 7.42811 7.02963 7.7559 7.29982C8.08369 7.57002 8.28082 7.95955 8.34729 8.46841H7.49459C7.39831 7.87624 7.04875 7.58015 6.44589 7.58015C6.05622 7.58015 5.75937 7.71862 5.55537 7.99557C5.35365 8.27027 5.24935 8.67444 5.24248 9.20807V9.58634C5.24248 10.1177 5.35594 10.5309 5.58287 10.8259C5.81209 11.1186 6.12957 11.2649 6.53529 11.2649C6.97998 11.2649 7.29631 11.1659 7.48427 10.9677V10.0051H6.45277V9.35668H8.35073V11.2413Z" fill="#67727E"/>
<path d="M10.2246 11.8796H9.35816V6.96208H10.2246V11.8796Z" fill="#67727E"/>
<path d="M14.1787 9.79574H12.1638V11.8796H11.2939V6.96208H14.4744V7.65108H12.1638V9.1135H14.1787V9.79574Z" fill="#67727E"/>
<path d="M8.35073 11.2413C8.16965 11.4732 7.91865 11.6488 7.59774 11.7682C7.27682 11.8875 6.91236 11.9472 6.50435 11.9472C6.08487 11.9472 5.71353 11.8537 5.39033 11.6668C5.06712 11.48 4.81727 11.2131 4.64077 10.8664C4.46656 10.5174 4.37602 10.111 4.36914 9.64713V9.26211C4.36914 8.51907 4.55023 7.93928 4.9124 7.52273C5.27457 7.10393 5.78 6.89453 6.4287 6.89453C6.98571 6.89453 7.42811 7.02963 7.7559 7.29982C8.08369 7.57002 8.28082 7.95955 8.34729 8.46841H7.49459C7.39831 7.87624 7.04875 7.58015 6.44589 7.58015C6.05622 7.58015 5.75937 7.71862 5.55537 7.99557C5.35365 8.27027 5.24935 8.67444 5.24248 9.20807V9.58634C5.24248 10.1177 5.35594 10.5309 5.58287 10.8259C5.81209 11.1186 6.12957 11.2649 6.53529 11.2649C6.97998 11.2649 7.29631 11.1659 7.48427 10.9677V10.0051H6.45277V9.35668H8.35073V11.2413Z" stroke="#67727E" stroke-width="0.2"/>
<path d="M10.2246 11.8796H9.35816V6.96208H10.2246V11.8796Z" stroke="#67727E" stroke-width="0.2"/>
<path d="M14.1787 9.79574H12.1638V11.8796H11.2939V6.96208H14.4744V7.65108H12.1638V9.1135H14.1787V9.79574Z" stroke="#67727E" stroke-width="0.2"/>
</svg>
