<svg width="18" height="20" viewBox="0 0 18 20" fill="none" xmlns="http://www.w3.org/2000/svg">
<path d="M4.41667 4.50004V1.75004C4.41667 1.50693 4.51324 1.27377 4.68515 1.10186C4.85706 0.929951 5.09022 0.833374 5.33333 0.833374H16.3333C16.5764 0.833374 16.8096 0.929951 16.9815 1.10186C17.1534 1.27377 17.25 1.50693 17.25 1.75004V14.5834C17.25 14.8265 17.1534 15.0596 16.9815 15.2316C16.8096 15.4035 16.5764 15.5 16.3333 15.5H13.5833V18.25C13.5833 18.756 13.1708 19.1667 12.6603 19.1667H1.67308C1.5522 19.1674 1.43236 19.1443 1.32046 19.0985C1.20856 19.0528 1.1068 18.9854 1.02102 18.9002C0.935244 18.8151 0.867144 18.7138 0.820633 18.6022C0.774123 18.4906 0.750119 18.3709 0.75 18.25L0.75275 5.41671C0.75275 4.91071 1.16525 4.50004 1.67583 4.50004H4.41667ZM2.58608 6.33337L2.58333 17.3334H11.75V6.33337H2.58608ZM6.25 4.50004H13.5833V13.6667H15.4167V2.66671H6.25V4.50004Z" fill="white"/>
</svg>
