<svg width="30" height="30" viewBox="0 0 30 30" fill="none" xmlns="http://www.w3.org/2000/svg">
<circle cx="15" cy="15" r="15" fill="#E4E6EA"/>
<g clip-path="url(#clip0_3570_2873)">
<path d="M17.5 15.5C17.5 16.163 17.2366 16.7989 16.7678 17.2678C16.2989 17.7366 15.663 18 15 18C14.337 18 13.7011 17.7366 13.2322 17.2678C12.7634 16.7989 12.5 16.163 12.5 15.5C12.5 14.837 12.7634 14.2011 13.2322 13.7322C13.7011 13.2634 14.337 13 15 13C15.663 13 16.2989 13.2634 16.7678 13.7322C17.2366 14.2011 17.5 14.837 17.5 15.5Z" fill="#1D1F23"/>
<path d="M9 11C8.46957 11 7.96086 11.2107 7.58579 11.5858C7.21071 11.9609 7 12.4696 7 13V19C7 19.5304 7.21071 20.0391 7.58579 20.4142C7.96086 20.7893 8.46957 21 9 21H21C21.5304 21 22.0391 20.7893 22.4142 20.4142C22.7893 20.0391 23 19.5304 23 19V13C23 12.4696 22.7893 11.9609 22.4142 11.5858C22.0391 11.2107 21.5304 11 21 11H19.828C19.2976 10.9999 18.789 10.7891 18.414 10.414L17.586 9.586C17.211 9.2109 16.7024 9.00011 16.172 9H13.828C13.2976 9.00011 12.789 9.2109 12.414 9.586L11.586 10.414C11.211 10.7891 10.7024 10.9999 10.172 11H9ZM9.5 13C9.36739 13 9.24021 12.9473 9.14645 12.8536C9.05268 12.7598 9 12.6326 9 12.5C9 12.3674 9.05268 12.2402 9.14645 12.1464C9.24021 12.0527 9.36739 12 9.5 12C9.63261 12 9.75979 12.0527 9.85355 12.1464C9.94732 12.2402 10 12.3674 10 12.5C10 12.6326 9.94732 12.7598 9.85355 12.8536C9.75979 12.9473 9.63261 13 9.5 13ZM18.5 15.5C18.5 16.4283 18.1313 17.3185 17.4749 17.9749C16.8185 18.6313 15.9283 19 15 19C14.0717 19 13.1815 18.6313 12.5251 17.9749C11.8687 17.3185 11.5 16.4283 11.5 15.5C11.5 14.5717 11.8687 13.6815 12.5251 13.0251C13.1815 12.3687 14.0717 12 15 12C15.9283 12 16.8185 12.3687 17.4749 13.0251C18.1313 13.6815 18.5 14.5717 18.5 15.5Z" fill="#1D1F23"/>
</g>
<defs>
<clipPath id="clip0_3570_2873">
<rect width="16" height="16" fill="white" transform="translate(7 7)"/>
</clipPath>
</defs>
</svg>
