<svg width="24" height="24" viewBox="0 0 24 24" fill="none" xmlns="http://www.w3.org/2000/svg">
<path d="M2.62126 2.53478C2.71083 2.46159 2.81966 2.41586 2.93462 2.40308C3.04959 2.39031 3.1658 2.41104 3.26926 2.46278L21.2693 11.4628C21.3691 11.5125 21.4531 11.5892 21.5118 11.684C21.5705 11.7789 21.6016 11.8882 21.6016 11.9998C21.6016 12.1113 21.5705 12.2207 21.5118 12.3155C21.4531 12.4104 21.3691 12.487 21.2693 12.5368L3.26926 21.5368C3.1659 21.5885 3.0498 21.6094 2.9349 21.5967C2.82 21.5841 2.7112 21.5385 2.62159 21.4655C2.53197 21.3925 2.46535 21.2951 2.42974 21.1851C2.39413 21.0752 2.39105 20.9573 2.42086 20.8456L4.78006 12.0004L2.42086 3.15518C2.3909 3.04346 2.39388 2.92546 2.42944 2.81539C2.46499 2.70532 2.53161 2.60787 2.62126 2.53478ZM5.86126 12.6004L3.92446 19.8676L19.6589 12.0004L3.92326 4.13318L5.86126 11.4004H13.8005C13.9596 11.4004 14.1122 11.4636 14.2247 11.5761C14.3372 11.6886 14.4005 11.8413 14.4005 12.0004C14.4005 12.1595 14.3372 12.3121 14.2247 12.4246C14.1122 12.5372 13.9596 12.6004 13.8005 12.6004H5.86126Z" fill="#A7A7A7"/>
</svg>
