<svg width="16" height="15" viewBox="0 0 16 15" fill="none" xmlns="http://www.w3.org/2000/svg">
<path d="M6.33333 2.5V4.16667H2.16667V13.3333H11.3333V9.16667H13V14.1667C13 14.3877 12.9122 14.5996 12.7559 14.7559C12.5996 14.9122 12.3877 15 12.1667 15H1.33333C1.11232 15 0.900358 14.9122 0.744078 14.7559C0.587797 14.5996 0.5 14.3877 0.5 14.1667V3.33333C0.5 3.11232 0.587797 2.90036 0.744078 2.74408C0.900358 2.5878 1.11232 2.5 1.33333 2.5H6.33333ZM15.5 0V6.66667H13.8333V2.84417L7.33917 9.33917L6.16083 8.16083L12.6542 1.66667H8.83333V0H15.5Z" fill="#ffffff"/>
</svg>
