<svg width="21" height="21" viewBox="0 0 21 21" fill="none" xmlns="http://www.w3.org/2000/svg">
<path d="M17.8889 1H3.11111C1.94518 1 1 1.94518 1 3.11111V17.8889C1 19.0548 1.94518 20 3.11111 20H17.8889C19.0548 20 20 19.0548 20 17.8889V3.11111C20 1.94518 19.0548 1 17.8889 1Z" stroke="#FF4F0A" stroke-width="2" stroke-linecap="round" stroke-linejoin="round"/>
<path d="M9.72814 13.1618C9.5131 13.4372 9.21504 13.6457 8.83396 13.7874C8.45288 13.9291 8.02007 14 7.53556 14C7.03743 14 6.59646 13.889 6.21266 13.6671C5.82885 13.4452 5.53215 13.1283 5.32256 12.7166C5.11569 12.3021 5.00817 11.8195 5 11.2687V10.8115C5 9.92914 5.21504 9.24064 5.64512 8.74599C6.0752 8.24866 6.6754 8 7.44573 8C8.10718 8 8.63253 8.16043 9.02178 8.48128C9.41102 8.80214 9.64512 9.26471 9.72406 9.86898H8.71147C8.59714 9.16578 8.18203 8.81417 7.46615 8.81417C7.0034 8.81417 6.6509 8.97861 6.40864 9.30749C6.16911 9.63369 6.04525 10.1136 6.03709 10.7473V11.1965C6.03709 11.8275 6.17183 12.3182 6.44131 12.6684C6.71351 13.016 7.09051 13.1898 7.5723 13.1898C8.10037 13.1898 8.47601 13.0722 8.69922 12.8369V11.6939H7.47431V10.9238H9.72814V13.1618Z" fill="#FF4F0A"/>
<path d="M11.9534 13.9198H10.9245V8.08021H11.9534V13.9198Z" fill="#FF4F0A"/>
<path d="M16.6489 11.4452H14.2562V13.9198H13.2232V8.08021H17V8.8984H14.2562V10.635H16.6489V11.4452Z" fill="#FF4F0A"/>
<path d="M9.72814 13.1618C9.5131 13.4372 9.21504 13.6457 8.83396 13.7874C8.45288 13.9291 8.02007 14 7.53556 14C7.03743 14 6.59646 13.889 6.21266 13.6671C5.82885 13.4452 5.53215 13.1283 5.32256 12.7166C5.11569 12.3021 5.00817 11.8195 5 11.2687V10.8115C5 9.92914 5.21504 9.24064 5.64512 8.74599C6.0752 8.24866 6.6754 8 7.44573 8C8.10718 8 8.63253 8.16043 9.02178 8.48128C9.41102 8.80214 9.64512 9.26471 9.72406 9.86898H8.71147C8.59714 9.16578 8.18203 8.81417 7.46615 8.81417C7.0034 8.81417 6.6509 8.97861 6.40864 9.30749C6.16911 9.63369 6.04525 10.1136 6.03709 10.7473V11.1965C6.03709 11.8275 6.17183 12.3182 6.44131 12.6684C6.71351 13.016 7.09051 13.1898 7.5723 13.1898C8.10037 13.1898 8.47601 13.0722 8.69922 12.8369V11.6939H7.47431V10.9238H9.72814V13.1618Z" stroke="#FF4F0A" stroke-width="0.2"/>
<path d="M11.9534 13.9198H10.9245V8.08021H11.9534V13.9198Z" stroke="#FF4F0A" stroke-width="0.2"/>
<path d="M16.6489 11.4452H14.2562V13.9198H13.2232V8.08021H17V8.8984H14.2562V10.635H16.6489V11.4452Z" stroke="#FF4F0A" stroke-width="0.2"/>
</svg>
