<svg width="20" height="21" viewBox="0 0 20 21" fill="none" xmlns="http://www.w3.org/2000/svg">
<g clip-path="url(#clip0_3570_2778)">
<path d="M9.77962 14.0108L8.41295 15.3664C7.99706 15.7769 7.43621 16.0071 6.85184 16.0071C6.26747 16.0071 5.70661 15.7769 5.29073 15.3664C5.08798 15.1641 4.92712 14.9238 4.81737 14.6593C4.70762 14.3947 4.65112 14.1111 4.65112 13.8247C4.65112 13.5383 4.70762 13.2547 4.81737 12.9902C4.92712 12.7256 5.08798 12.4853 5.29073 12.283L7.89628 9.69972C8.31217 9.28919 8.87302 9.05901 9.45739 9.05901C10.0418 9.05901 10.6026 9.28919 11.0185 9.69972C11.2832 9.96266 11.4747 10.2901 11.5741 10.6497C11.6287 10.6046 11.679 10.5544 11.7241 10.4997L12.4407 9.7886C12.2803 9.45459 12.0642 9.15027 11.8018 8.8886C11.1778 8.27114 10.3353 7.9248 9.45739 7.9248C8.57948 7.9248 7.73702 8.27114 7.11295 8.8886L4.50184 11.4942C4.19428 11.7994 3.95018 12.1624 3.78359 12.5624C3.61701 12.9624 3.53125 13.3914 3.53125 13.8247C3.53125 14.258 3.61701 14.687 3.78359 15.087C3.95018 15.487 4.19428 15.8501 4.50184 16.1553C5.12591 16.7727 5.96837 17.1191 6.84628 17.1191C7.72419 17.1191 8.56666 16.7727 9.19073 16.1553L11.2185 14.1442H10.9407C10.5495 14.151 10.1591 14.1062 9.77962 14.0108Z" fill="#1D9BF0"/>
<path d="M15.8937 4.84466C15.2696 4.2272 14.4271 3.88086 13.5492 3.88086C12.6713 3.88086 11.8288 4.2272 11.2048 4.84466L9.177 6.85577H9.44922C9.84328 6.85567 10.2356 6.90798 10.6159 7.01133L11.9826 5.65577C12.3984 5.24525 12.9593 5.01507 13.5437 5.01507C14.128 5.01507 14.6889 5.24525 15.1048 5.65577C15.3075 5.85806 15.4684 6.09835 15.5781 6.3629C15.6879 6.62744 15.7444 6.91103 15.7444 7.19744C15.7444 7.48384 15.6879 7.76743 15.5781 8.03198C15.4684 8.29652 15.3075 8.53681 15.1048 8.7391L12.4992 11.3224C12.0833 11.733 11.5225 11.9631 10.9381 11.9631C10.3537 11.9631 9.79288 11.733 9.377 11.3224C9.11232 11.0595 8.92083 10.732 8.82144 10.3724C8.76583 10.4102 8.71376 10.453 8.66589 10.5002L7.94922 11.2113C8.10969 11.5453 8.32572 11.8497 8.58811 12.1113C9.21218 12.7288 10.0546 13.0751 10.9326 13.0751C11.8105 13.0751 12.6529 12.7288 13.277 12.1113L15.8826 9.52799C16.1894 9.22241 16.433 8.85922 16.5991 8.45928C16.7653 8.05934 16.8508 7.63052 16.8508 7.19744C16.8508 6.76435 16.7653 6.33553 16.5991 5.93559C16.433 5.53565 16.1894 5.17246 15.8826 4.86688L15.8937 4.84466Z" fill="#1D9BF0"/>
</g>
<defs>
<clipPath id="clip0_3570_2778">
<rect width="20" height="20" fill="white" transform="translate(0 0.5)"/>
</clipPath>
</defs>
</svg>
