<svg width="40" height="40" viewBox="0 0 40 40" fill="none" xmlns="http://www.w3.org/2000/svg">
<circle cx="20" cy="20" r="20" fill="#5757AC"/>
<path d="M31.2347 11.8532C30.7316 10.966 29.921 10.2937 28.9561 9.96321C27.9446 9.61607 27.0767 8.95071 26.5242 8.03464C26.1542 7.41599 25.6305 6.90353 25.004 6.54702C24.3775 6.19051 23.6694 6.00207 22.9486 6C22.3662 6 21.8136 6.12536 21.3083 6.3375C20.6218 6.63643 19.8494 6.63643 19.1628 6.3375C18.6407 6.11779 18.0804 6.0031 17.5139 6C16.0163 6 14.7097 6.79071 13.9653 7.97679C13.3866 8.90518 12.5092 9.60909 11.4775 9.97286C10.4702 10.3274 9.6351 11.0512 9.14099 11.9979C8.78323 12.6858 8.61827 13.4578 8.6636 14.2319C8.70893 15.006 8.96285 15.7535 9.39845 16.395C9.71378 16.8579 9.88542 17.4075 9.88542 17.9668V19.0622C10.4003 18.6987 9.93363 19.7806 9.86131 20.0959V25.2722C9.86131 26.8777 10.8179 28.3078 12.272 28.9018H28.1827C29.6369 28.3078 30.5935 26.8768 30.5935 25.2722V20.5781C30.4671 20.0892 29.714 18.4663 30.5578 19.0535V17.9668C30.5578 17.4075 30.7294 16.8579 31.0438 16.395C31.501 15.7331 31.7615 14.9554 31.7953 14.1517C31.8291 13.348 31.6347 12.5511 31.2347 11.8532Z" fill="#212121"/>
<path d="M14.442 21.4285C14.442 21.8084 14.3671 22.1846 14.2218 22.5356C14.0764 22.8865 13.8633 23.2054 13.5947 23.4741C13.326 23.7427 13.0071 23.9558 12.6562 24.1012C12.3052 24.2465 11.929 24.3214 11.5491 24.3214C11.1692 24.3214 10.793 24.2465 10.4421 24.1012C10.0911 23.9558 9.77217 23.7427 9.50355 23.4741C9.23492 23.2054 9.02184 22.8865 8.87646 22.5356C8.73108 22.1846 8.65625 21.8084 8.65625 21.4285C8.65625 20.6613 8.96103 19.9255 9.50355 19.3829C10.0461 18.8404 10.7819 18.5356 11.5491 18.5356C12.3163 18.5356 13.0522 18.8404 13.5947 19.3829C14.1372 19.9255 14.442 20.6613 14.442 21.4285ZM31.7991 21.4285C31.7991 21.8084 31.7243 22.1846 31.5789 22.5356C31.4335 22.8865 31.2204 23.2054 30.9518 23.4741C30.6832 23.7427 30.3643 23.9558 30.0133 24.1012C29.6623 24.2465 29.2861 24.3214 28.9062 24.3214C28.5264 24.3214 28.1502 24.2465 27.7992 24.1012C27.4482 23.9558 27.1293 23.7427 26.8607 23.4741C26.5921 23.2054 26.379 22.8865 26.2336 22.5356C26.0882 22.1846 26.0134 21.8084 26.0134 21.4285C26.0134 20.6613 26.3182 19.9255 26.8607 19.3829C27.4032 18.8404 28.139 18.5356 28.9062 18.5356C29.6735 18.5356 30.4093 18.8404 30.9518 19.3829C31.4943 19.9255 31.7991 20.6613 31.7991 21.4285Z" fill="#F4C6AD"/>
<path d="M11.0078 18.5755L11.5507 26.877C11.7732 28.5721 12.6049 30.1283 13.8907 31.255C15.1764 32.3818 16.8283 33.0021 18.5379 33.0002H21.9293C23.6388 33.0019 25.2904 32.3814 26.5759 31.2547C27.8615 30.128 28.6931 28.5719 28.9156 26.877L29.4343 18.589L29.3871 18.5803L29.498 16.7327C29.4787 15.3538 28.392 14.2159 27.0198 14.1581H24.502C23.6593 14.1569 22.8349 13.9112 22.1291 13.4508C21.4232 12.9903 20.8661 12.335 20.5253 11.5642C20.4371 11.3427 20.2846 11.1527 20.0875 11.0186C19.8904 10.8846 19.6577 10.8126 19.4193 10.812H17.1301C13.812 10.812 11.0647 13.5313 11.0647 16.887V18.5668C11.0457 18.5698 11.0267 18.572 11.0078 18.5755Z" fill="#FFD7C2"/>
<path d="M19.5412 20.9723L18.5866 24.0291C18.5413 24.1749 18.5311 24.3294 18.5568 24.4799C18.5826 24.6304 18.6435 24.7727 18.7347 24.8952C18.8259 25.0177 18.9447 25.1169 19.0815 25.1847C19.2183 25.2525 19.3692 25.2871 19.5219 25.2855H20.9356C21.599 25.2855 22.0667 24.6472 21.8709 24.0281L20.9163 20.9713C20.7109 20.2954 19.7562 20.2954 19.5412 20.9713V20.9723Z" fill="#E5AF93"/>
<path d="M20.2288 27.1132C19.3632 27.1189 18.509 26.9165 17.738 26.5231C17.4921 26.3977 17.227 26.6755 17.3822 26.8992C17.6938 27.3684 18.117 27.7529 18.6138 28.0183C19.1106 28.2837 19.6655 28.4217 20.2288 28.4198C20.792 28.4217 21.3469 28.2837 21.8437 28.0183C22.3405 27.7529 22.7637 27.3684 23.0753 26.8992C23.2296 26.6668 22.9654 26.3977 22.7195 26.5231C21.9489 26.9175 21.0944 27.12 20.2288 27.1132Z" fill="#990838"/>
<path d="M13.4906 20.818C13.6299 20.2646 13.9535 19.775 14.408 19.4298C14.8626 19.0846 15.421 18.9044 15.9916 18.9188C16.5622 18.9331 17.1109 19.1412 17.5475 19.5088C17.9841 19.8764 18.2826 20.3817 18.3939 20.9415C18.4049 21.0013 18.4025 21.0628 18.3869 21.1216C18.3713 21.1803 18.3429 21.2349 18.3037 21.2815C18.2646 21.328 18.2156 21.3653 18.1604 21.3907C18.1051 21.4161 18.0449 21.429 17.9841 21.4284H13.9756C13.9004 21.4292 13.826 21.4128 13.7581 21.3805C13.6902 21.3482 13.6305 21.3008 13.5837 21.2419C13.5369 21.183 13.5042 21.1142 13.4881 21.0407C13.4719 20.9673 13.4728 20.8911 13.4906 20.818ZM26.9616 20.818C26.8228 20.2767 26.5082 19.7967 26.0672 19.4534C25.6262 19.1102 25.0837 18.923 24.5249 18.9213C23.9432 18.9199 23.3792 19.1207 22.9294 19.4894C22.4796 19.8582 22.1719 20.3718 22.0592 20.9424C22.0484 21.0021 22.0509 21.0634 22.0666 21.122C22.0822 21.1806 22.1105 21.235 22.1495 21.2814C22.1886 21.3278 22.2373 21.365 22.2924 21.3904C22.3474 21.4158 22.4074 21.4288 22.4681 21.4284H26.4766C26.5518 21.4292 26.6262 21.4128 26.6941 21.3805C26.762 21.3482 26.8216 21.3008 26.8684 21.2419C26.9152 21.183 26.948 21.1142 26.9641 21.0407C26.9803 20.9673 26.9794 20.8911 26.9616 20.818Z" fill="white"/>
<path d="M14.6924 21.0016C14.6924 20.7726 14.7414 20.5464 14.8361 20.338C14.9308 20.1296 15.069 19.9439 15.2414 19.7933C15.4138 19.6427 15.6164 19.5307 15.8356 19.4649C16.0549 19.3991 16.2857 19.381 16.5125 19.4117C16.7393 19.4425 16.9569 19.5214 17.1507 19.6432C17.3446 19.765 17.5101 19.9269 17.6362 20.1179C17.7622 20.309 17.846 20.5248 17.8818 20.7509C17.9176 20.9769 17.9046 21.2081 17.8437 21.4287H14.7493C14.7107 21.2896 14.6922 21.1459 14.6924 21.0016ZM25.7643 21.0016C25.7643 20.1086 25.0411 19.396 24.1559 19.396C23.945 19.3949 23.736 19.4356 23.541 19.516C23.346 19.5963 23.1689 19.7146 23.02 19.864C22.8712 20.0134 22.7535 20.1909 22.6739 20.3862C22.5942 20.5815 22.5542 20.7907 22.5561 21.0016C22.5561 21.1529 22.5754 21.2957 22.614 21.4287H25.7074C25.746 21.286 25.7653 21.1529 25.7653 21.0016H25.7643Z" fill="#7D4533"/>
<path d="M16.3013 20.0889C16.4589 20.0885 16.6139 20.1288 16.7512 20.206C16.8886 20.2832 17.0036 20.3947 17.0851 20.5295C17.1666 20.6643 17.2119 20.8179 17.2165 20.9754C17.2211 21.1329 17.1849 21.2889 17.1113 21.4283H15.4923C15.4187 21.2889 15.3825 21.1329 15.3871 20.9754C15.3917 20.8179 15.437 20.6643 15.5185 20.5295C15.6 20.3947 15.7151 20.2832 15.8524 20.206C15.9897 20.1288 16.1447 20.0885 16.3023 20.0889H16.3013ZM24.1468 20.0889C23.9892 20.0885 23.8342 20.1288 23.6969 20.206C23.5595 20.2832 23.4445 20.3947 23.363 20.5295C23.2814 20.6643 23.2362 20.8179 23.2316 20.9754C23.227 21.1329 23.2632 21.2889 23.3368 21.4283H24.9558C25.0293 21.2889 25.0656 21.1329 25.061 20.9754C25.0564 20.8179 25.0111 20.6643 24.9296 20.5295C24.848 20.3947 24.733 20.2832 24.5957 20.206C24.4583 20.1288 24.3043 20.0885 24.1468 20.0889Z" fill="black"/>
<path d="M16.0347 20.3869C16.0347 20.547 15.9075 20.6762 15.7503 20.6762C15.7125 20.676 15.6752 20.6683 15.6405 20.6536C15.6057 20.6389 15.5742 20.6176 15.5476 20.5907C15.5211 20.5638 15.5002 20.532 15.486 20.4971C15.4718 20.4621 15.4646 20.4247 15.4649 20.3869C15.4649 20.2269 15.5921 20.0977 15.7503 20.0977C15.9075 20.0977 16.0357 20.2269 16.0357 20.3869H16.0347ZM23.938 20.3869C23.938 20.547 23.8098 20.6762 23.6516 20.6762C23.6139 20.676 23.5766 20.6683 23.5418 20.6536C23.507 20.6389 23.4755 20.6176 23.449 20.5907C23.4225 20.5638 23.4015 20.532 23.3873 20.4971C23.3731 20.4621 23.366 20.4247 23.3662 20.3869C23.3662 20.2269 23.4945 20.0977 23.6516 20.0977C23.8098 20.0977 23.938 20.2269 23.938 20.3869Z" fill="white"/>
<path d="M25.7015 15.81C26.2559 15.9835 26.6224 16.2747 26.9377 16.5496C27.0374 16.6365 27.0986 16.7595 27.1076 16.8915C27.1166 17.0236 27.0729 17.1538 26.9859 17.2535C26.899 17.3532 26.7759 17.4144 26.6439 17.4234C26.5119 17.4324 26.3817 17.3887 26.282 17.3017C25.9995 17.0549 25.7584 16.8726 25.4016 16.7608C25.0371 16.646 24.5077 16.591 23.6427 16.6971C23.5777 16.7051 23.5117 16.7002 23.4486 16.6827C23.3855 16.6651 23.3264 16.6354 23.2748 16.595C23.2232 16.5547 23.18 16.5046 23.1478 16.4476C23.1155 16.3905 23.0948 16.3277 23.0868 16.2627C23.0788 16.1977 23.0838 16.1317 23.1013 16.0686C23.1188 16.0055 23.1486 15.9464 23.1889 15.8948C23.2292 15.8432 23.2793 15.8 23.3364 15.7677C23.3934 15.7355 23.4562 15.7148 23.5212 15.7068C24.4691 15.5911 25.1557 15.6374 25.7015 15.81ZM14.7838 16.0163C14.4888 16.132 14.2564 16.2564 14.0944 16.3538L13.8263 16.5312C13.7217 16.6122 13.6535 16.7314 13.6368 16.8626C13.6201 16.9938 13.6562 17.1262 13.7371 17.2308C13.8181 17.3354 13.9372 17.4036 14.0684 17.4203C14.1996 17.4371 14.3321 17.401 14.4367 17.32L14.4415 17.3162L14.4704 17.295C14.6834 17.155 14.9103 17.0374 15.1474 16.944C15.7672 16.7001 16.4381 16.6152 17.0991 16.6971C17.2304 16.7132 17.3628 16.6765 17.467 16.595C17.5713 16.5136 17.6389 16.394 17.655 16.2627C17.6711 16.1314 17.6344 15.999 17.5529 15.8948C17.4715 15.7905 17.3519 15.7229 17.2206 15.7068C16.3952 15.6052 15.5576 15.7116 14.7838 16.0163Z" fill="#212121"/>
</svg>
