<svg width="50" height="50" viewBox="0 0 50 50" fill="none" xmlns="http://www.w3.org/2000/svg">
<circle cx="25" cy="25" r="25" fill="#5757AC"/>
<path d="M39.0434 14.8165C38.4145 13.7075 37.4013 12.8671 36.1951 12.454C34.9307 12.0201 33.8459 11.1884 33.1552 10.0433C32.6927 9.26999 32.0381 8.62941 31.255 8.18377C30.4719 7.73813 29.5868 7.50259 28.6857 7.5C27.9577 7.5 27.267 7.6567 26.6354 7.92187C25.7772 8.29554 24.8117 8.29554 23.9535 7.92187C23.3008 7.64723 22.6004 7.50388 21.8924 7.5C20.0204 7.5 18.3872 8.48839 17.4566 9.97098C16.7332 11.1315 15.6365 12.0114 14.3468 12.4661C13.0877 12.9093 12.0439 13.814 11.4262 14.9973C10.979 15.8573 10.7728 16.8223 10.8295 17.7899C10.8862 18.7575 11.2036 19.6918 11.7481 20.4937C12.1422 21.0723 12.3568 21.7594 12.3568 22.4585V23.8278C13.0004 23.3733 12.417 24.7258 12.3266 25.1199V31.5903C12.3266 33.5972 13.5224 35.3847 15.34 36.1272H35.2284C37.0461 35.3847 38.2418 33.596 38.2418 31.5903V25.7226C38.0839 25.1115 37.1425 23.0829 38.1972 23.8169V22.4585C38.1972 21.7594 38.4118 21.0723 38.8047 20.4937C39.3762 19.6664 39.7019 18.6942 39.7441 17.6896C39.7863 16.685 39.5434 15.6889 39.0434 14.8165Z" fill="#212121"/>
<path d="M18.0525 26.7855C18.0525 27.2604 17.9589 27.7306 17.7772 28.1693C17.5955 28.608 17.3291 29.0067 16.9933 29.3425C16.6575 29.6782 16.2589 29.9446 15.8202 30.1263C15.3815 30.308 14.9113 30.4016 14.4364 30.4016C13.9615 30.4016 13.4913 30.308 13.0526 30.1263C12.6139 29.9446 12.2152 29.6782 11.8794 29.3425C11.5437 29.0067 11.2773 28.608 11.0956 28.1693C10.9138 27.7306 10.8203 27.2604 10.8203 26.7855C10.8203 25.8265 11.2013 24.9067 11.8794 24.2286C12.5576 23.5504 13.4773 23.1694 14.4364 23.1694C15.3954 23.1694 16.3152 23.5504 16.9933 24.2286C17.6715 24.9067 18.0525 25.8265 18.0525 26.7855ZM39.7489 26.7855C39.7489 27.2604 39.6553 27.7306 39.4736 28.1693C39.2919 28.608 39.0255 29.0067 38.6898 29.3425C38.354 29.6782 37.9553 29.9446 37.5166 30.1263C37.0779 30.308 36.6077 30.4016 36.1328 30.4016C35.6579 30.4016 35.1877 30.308 34.749 30.1263C34.3103 29.9446 33.9116 29.6782 33.5759 29.3425C33.2401 29.0067 32.9737 28.608 32.792 28.1693C32.6103 27.7306 32.5167 27.2604 32.5167 26.7855C32.5167 25.8265 32.8977 24.9067 33.5759 24.2286C34.254 23.5504 35.1738 23.1694 36.1328 23.1694C37.0919 23.1694 38.0116 23.5504 38.6898 24.2286C39.3679 24.9067 39.7489 25.8265 39.7489 26.7855Z" fill="#F4C6AD"/>
<path d="M13.7578 23.2195L14.4364 33.5964C14.7145 35.7152 15.7542 37.6604 17.3614 39.0689C18.9686 40.4773 21.0334 41.2528 23.1704 41.2504H27.4097C29.5465 41.2525 31.611 40.4769 33.218 39.0685C34.8249 37.6601 35.8644 35.715 36.1425 33.5964L36.791 23.2363L36.7319 23.2255L36.8705 20.916C36.8464 19.1924 35.488 17.77 33.7728 17.6977H30.6256C29.5721 17.6962 28.5417 17.3891 27.6594 16.8136C26.777 16.238 26.0806 15.4188 25.6547 14.4553C25.5445 14.1785 25.3539 13.941 25.1075 13.7734C24.861 13.6059 24.5701 13.5159 24.2721 13.5151H21.4106C17.263 13.5151 13.8289 16.9142 13.8289 21.1089V23.2086C13.8052 23.2124 13.7815 23.2152 13.7578 23.2195Z" fill="#FFD7C2"/>
<path d="M24.4275 26.2155L23.2342 30.0365C23.1776 30.2188 23.1648 30.4118 23.197 30.6C23.2292 30.7881 23.3054 30.966 23.4194 31.1191C23.5334 31.2722 23.6819 31.3962 23.8529 31.481C24.0239 31.5658 24.2125 31.609 24.4034 31.6071H26.1704C26.9997 31.6071 27.5843 30.8091 27.3396 30.0353L26.1463 26.2143C25.8896 25.3693 24.6963 25.3693 24.4275 26.2143V26.2155Z" fill="#E5AF93"/>
<path d="M25.2879 33.8918C24.206 33.8988 23.1382 33.6459 22.1745 33.1541C21.8671 32.9974 21.5356 33.3446 21.7297 33.6242C22.1192 34.2107 22.6482 34.6914 23.2692 35.0231C23.8902 35.3549 24.5839 35.5273 25.2879 35.5251C25.992 35.5273 26.6856 35.3549 27.3066 35.0231C27.9276 34.6914 28.4566 34.2107 28.8461 33.6242C29.039 33.3337 28.7087 32.9974 28.4014 33.1541C27.4381 33.6471 26.37 33.9002 25.2879 33.8918Z" fill="#990838"/>
<path d="M16.8612 26.0225C17.0354 25.3307 17.4399 24.7187 18.0081 24.2872C18.5763 23.8558 19.2743 23.6305 19.9876 23.6485C20.7008 23.6664 21.3867 23.9265 21.9324 24.386C22.4782 24.8455 22.8513 25.4771 22.9905 26.1768C23.0042 26.2516 23.0011 26.3285 22.9817 26.4019C22.9622 26.4754 22.9267 26.5437 22.8777 26.6018C22.8288 26.66 22.7676 26.7066 22.6985 26.7384C22.6294 26.7701 22.5542 26.7862 22.4782 26.7855H17.4675C17.3735 26.7865 17.2805 26.7661 17.1956 26.7256C17.1107 26.6852 17.0362 26.626 16.9777 26.5524C16.9192 26.4787 16.8783 26.3928 16.8581 26.3009C16.838 26.2091 16.839 26.1139 16.8612 26.0225ZM33.7001 26.0225C33.5266 25.3458 33.1333 24.7459 32.5821 24.3168C32.0308 23.8877 31.3527 23.6537 30.6541 23.6516C29.9271 23.6498 29.2221 23.9009 28.6598 24.3618C28.0975 24.8227 27.713 25.4648 27.572 26.178C27.5586 26.2526 27.5617 26.3292 27.5812 26.4025C27.6008 26.4757 27.6362 26.5438 27.685 26.6018C27.7338 26.6598 27.7947 26.7063 27.8635 26.738C27.9324 26.7698 28.0073 26.786 28.0831 26.7855H33.0938C33.1878 26.7865 33.2808 26.7661 33.3657 26.7256C33.4506 26.6852 33.5251 26.626 33.5836 26.5524C33.6421 26.4787 33.683 26.3928 33.7032 26.3009C33.7234 26.2091 33.7223 26.1139 33.7001 26.0225Z" fill="white"/>
<path d="M18.3645 26.2521C18.3645 25.9659 18.4258 25.6831 18.5441 25.4226C18.6625 25.1621 18.8352 24.9299 19.0507 24.7417C19.2662 24.5535 19.5195 24.4135 19.7936 24.3313C20.0676 24.249 20.3561 24.2263 20.6396 24.2648C20.9232 24.3032 21.1952 24.4019 21.4375 24.5541C21.6797 24.7064 21.8866 24.9087 22.0442 25.1475C22.2018 25.3863 22.3065 25.6561 22.3512 25.9387C22.396 26.2213 22.3797 26.5102 22.3036 26.786H18.4356C18.3875 26.6121 18.3643 26.4325 18.3645 26.2521ZM32.2044 26.2521C32.2044 25.1359 31.3004 24.2451 30.1939 24.2451C29.9302 24.2437 29.669 24.2947 29.4252 24.3951C29.1815 24.4955 28.9601 24.6434 28.7741 24.8302C28.588 25.0169 28.4409 25.2388 28.3414 25.4829C28.2418 25.727 28.1918 25.9885 28.1942 26.2521C28.1942 26.4413 28.2183 26.6197 28.2665 26.786H32.1333C32.1815 26.6076 32.2056 26.4413 32.2056 26.2521H32.2044Z" fill="#7D4533"/>
<path d="M20.3776 25.1113C20.5746 25.1108 20.7683 25.1613 20.94 25.2578C21.1117 25.3543 21.2555 25.4936 21.3574 25.6621C21.4593 25.8306 21.5159 26.0227 21.5216 26.2195C21.5273 26.4164 21.4821 26.6114 21.3901 26.7856H19.3663C19.2744 26.6114 19.2291 26.4164 19.2349 26.2195C19.2406 26.0227 19.2972 25.8306 19.3991 25.6621C19.501 25.4936 19.6448 25.3543 19.8165 25.2578C19.9882 25.1613 20.1819 25.1108 20.3788 25.1113H20.3776ZM30.1844 25.1113C29.9875 25.1108 29.7937 25.1613 29.6221 25.2578C29.4504 25.3543 29.3066 25.4936 29.2047 25.6621C29.1028 25.8306 29.0462 26.0227 29.0404 26.2195C29.0347 26.4164 29.08 26.6114 29.1719 26.7856H31.1957C31.2876 26.6114 31.3329 26.4164 31.3272 26.2195C31.3214 26.0227 31.2649 25.8306 31.163 25.6621C31.061 25.4936 30.9172 25.3543 30.7456 25.2578C30.5739 25.1613 30.3814 25.1108 30.1844 25.1113Z" fill="black"/>
<path d="M20.0444 25.4837C20.0444 25.6838 19.8853 25.8453 19.6888 25.8453C19.6417 25.845 19.595 25.8354 19.5515 25.817C19.5081 25.7987 19.4687 25.772 19.4355 25.7384C19.4024 25.7048 19.3762 25.665 19.3585 25.6213C19.3407 25.5776 19.3317 25.5308 19.332 25.4837C19.332 25.2836 19.4911 25.1221 19.6888 25.1221C19.8853 25.1221 20.0456 25.2836 20.0456 25.4837H20.0444ZM29.9235 25.4837C29.9235 25.6838 29.7632 25.8453 29.5655 25.8453C29.5184 25.845 29.4717 25.8354 29.4282 25.817C29.3848 25.7987 29.3454 25.772 29.3122 25.7384C29.2791 25.7048 29.2529 25.665 29.2352 25.6213C29.2174 25.5776 29.2084 25.5308 29.2087 25.4837C29.2087 25.2836 29.369 25.1221 29.5655 25.1221C29.7632 25.1221 29.9235 25.2836 29.9235 25.4837Z" fill="white"/>
<path d="M32.1249 19.7623C32.818 19.9793 33.276 20.3433 33.6702 20.6868C33.7948 20.7955 33.8712 20.9493 33.8825 21.1143C33.8938 21.2793 33.8391 21.4421 33.7304 21.5668C33.6217 21.6914 33.468 21.7678 33.303 21.7791C33.138 21.7904 32.9752 21.7357 32.8505 21.627C32.4974 21.3184 32.196 21.0906 31.75 20.9508C31.2944 20.8074 30.6327 20.7387 29.5515 20.8713C29.4702 20.8812 29.3877 20.8751 29.3088 20.8532C29.2299 20.8313 29.1561 20.7941 29.0916 20.7437C29.027 20.6932 28.9731 20.6306 28.9328 20.5593C28.8924 20.4881 28.8665 20.4095 28.8566 20.3282C28.8466 20.247 28.8527 20.1645 28.8746 20.0856C28.8965 20.0067 28.9337 19.9329 28.9842 19.8683C29.0346 19.8038 29.0972 19.7499 29.1685 19.7095C29.2398 19.6692 29.3183 19.6433 29.3996 19.6334C30.5845 19.4887 31.4427 19.5466 32.1249 19.7623ZM18.4778 20.0203C18.109 20.1649 17.8185 20.3204 17.616 20.4422L17.2809 20.6639C17.1502 20.7651 17.065 20.9141 17.0441 21.0781C17.0232 21.2421 17.0683 21.4077 17.1694 21.5384C17.2706 21.6692 17.4196 21.7544 17.5836 21.7753C17.7476 21.7962 17.9132 21.7511 18.0439 21.6499L18.0499 21.6451L18.0861 21.6186C18.3524 21.4437 18.6359 21.2966 18.9323 21.1798C19.707 20.875 20.5457 20.7689 21.3719 20.8713C21.5361 20.8914 21.7015 20.8455 21.8318 20.7437C21.9621 20.6418 22.0467 20.4924 22.0668 20.3282C22.0869 20.1641 22.041 19.9987 21.9392 19.8683C21.8374 19.738 21.6879 19.6535 21.5238 19.6334C20.4921 19.5063 19.445 19.6393 18.4778 20.0203Z" fill="#212121"/>
</svg>
