<svg width="21" height="21" viewBox="0 0 21 21" fill="none" xmlns="http://www.w3.org/2000/svg">
<path d="M17.888 1.00049H3.111C1.94513 1.00049 1 1.94561 1 3.11149V17.8885C1 19.0543 1.94513 19.9995 3.111 19.9995H17.888C19.0538 19.9995 19.999 19.0543 19.999 17.8885V3.11149C19.999 1.94561 19.0538 1.00049 17.888 1.00049Z" stroke="#FF4F0A" stroke-width="2" stroke-linecap="round" stroke-linejoin="round"/>
<path d="M6.8059 8.38769C7.68031 8.38769 8.38915 7.67884 8.38915 6.80444C8.38915 5.93004 7.68031 5.22119 6.8059 5.22119C5.9315 5.22119 5.22266 5.93004 5.22266 6.80444C5.22266 7.67884 5.9315 8.38769 6.8059 8.38769Z" stroke="#FF4F0A" stroke-width="2" stroke-linecap="round" stroke-linejoin="round"/>
<path d="M19.9974 13.6671L14.7199 8.38965L3.10938 20.0001" stroke="#FF4F0A" stroke-width="2" stroke-linecap="round" stroke-linejoin="round"/>
</svg>
