<svg width="24" height="24" viewBox="0 0 24 24" fill="none" xmlns="http://www.w3.org/2000/svg">
<path d="M10 16.0006H14C14.55 16.0006 15 15.5506 15 15.0006V10.0006H16.59C17.48 10.0006 17.93 8.92065 17.3 8.29065L12.71 3.70065C12.6175 3.60794 12.5076 3.5344 12.3866 3.48421C12.2657 3.43403 12.136 3.4082 12.005 3.4082C11.874 3.4082 11.7443 3.43403 11.6234 3.48421C11.5024 3.5344 11.3925 3.60794 11.3 3.70065L6.71 8.29065C6.08 8.92065 6.52 10.0006 7.41 10.0006H9V15.0006C9 15.5506 9.45 16.0006 10 16.0006ZM6 18.0006H18C18.55 18.0006 19 18.4506 19 19.0006C19 19.5506 18.55 20.0006 18 20.0006H6C5.45 20.0006 5 19.5506 5 19.0006C5 18.4506 5.45 18.0006 6 18.0006Z" fill="#303030"/>
</svg>
