<svg width="14" height="13" viewBox="0 0 14 13" fill="none" xmlns="http://www.w3.org/2000/svg">
<path d="M1.16145 11.3296C0.845049 11.646 0.829982 12.2111 1.16899 12.5425C1.50046 12.874 2.06547 12.8665 2.38188 12.5501L6.99237 7.93203L11.6104 12.5501C11.9343 12.874 12.4918 12.874 12.8233 12.5425C13.1472 12.2035 13.1548 11.6536 12.8233 11.3296L8.21279 6.71161L12.8233 2.10112C13.1548 1.77718 13.1548 1.2197 12.8233 0.888227C12.4843 0.564287 11.9343 0.556753 11.6104 0.880693L6.99237 5.49872L2.38188 0.880693C2.06547 0.564287 1.49293 0.54922 1.16899 0.888227C0.837515 1.2197 0.845049 1.78471 1.16145 2.10112L5.77948 6.71161L1.16145 11.3296Z" fill="black"/>
</svg>
