<svg width="18" height="18" viewBox="0 0 24 24" fill="currentColor" xmlns="http://www.w3.org/2000/svg">
<path fill-rule="evenodd" clip-rule="evenodd" d="M23.1572 0.842804C22.0335 -0.280935 20.2022 -0.280935 19.0784 0.842804L17.6772 2.24401L3.06863 16.8526C2.99927 16.922 2.94377 17.0052 2.90215 17.0885L0.0997453 22.6933C-0.0806078 23.0401 -0.0112412 23.4563 0.266225 23.7338C0.543691 24.0112 0.959891 24.0806 1.30672 23.9003L6.91154 21.0978V21.084C6.99478 21.0424 7.07802 21.0007 7.14739 20.9314L21.756 6.32276L23.1572 4.92156C24.2809 3.78395 24.2809 1.96654 23.1572 0.842804ZM6.50922 19.0168L4.98315 17.4908L18.3154 4.15853L19.8415 5.68459L6.50922 19.0168ZM3.95653 19.0168L4.98315 20.0435L3.18641 20.9479C3.10033 20.9912 3.0088 20.8997 3.05213 20.8136L3.95653 19.0168ZM21.8808 3.64521L21.1178 4.40825L19.5918 2.88218L20.3548 2.11915C20.771 1.70295 21.4647 1.70295 21.8808 2.11915C22.3109 2.53535 22.3109 3.21514 21.8808 3.64521Z"/>
</svg>
