<svg width="16" height="17" viewBox="0 0 16 17" fill="none" xmlns="http://www.w3.org/2000/svg">
<path fill-rule="evenodd" clip-rule="evenodd" d="M15.4381 1.1024C14.689 0.353238 13.4681 0.353238 12.719 1.1024L11.7848 2.03653L2.04576 11.7756C1.99951 11.8218 1.96252 11.8773 1.93477 11.9328L0.0664969 15.6694C-0.0537385 15.9006 -0.00749414 16.1781 0.177483 16.363C0.362461 16.548 0.639927 16.5943 0.871149 16.474L4.6077 14.6058V14.5965C4.66319 14.5688 4.71868 14.541 4.76493 14.4948L14.504 4.7557L15.4381 3.82157C16.1873 3.06316 16.1873 1.85156 15.4381 1.1024ZM4.33948 13.2184L3.3221 12.2011L12.2103 3.31288L13.2276 4.33025L4.33948 13.2184ZM2.63768 13.2184L3.3221 13.9028L2.2144 14.4604C2.12832 14.5037 2.03679 14.4122 2.08012 14.3261L2.63768 13.2184ZM14.5872 2.97067L14.0785 3.47936L13.0612 2.46198L13.5699 1.95329C13.8473 1.67583 14.3098 1.67583 14.5872 1.95329C14.8739 2.23076 14.8739 2.68395 14.5872 2.97067Z" fill="#FF4F0A"/>
</svg>
