<svg width="16" height="17" viewBox="0 0 16 17" fill="none" xmlns="http://www.w3.org/2000/svg">
<path d="M13 16.5405H2C1.46957 16.5405 0.960859 16.3298 0.585786 15.9547C0.210714 15.5797 0 15.071 0 14.5405V3.54053C0 3.01009 0.210714 2.50139 0.585786 2.12631C0.960859 1.75124 1.46957 1.54053 2 1.54053H6V3.54053H2V14.5405H13V10.5405H15V14.5405C15 15.071 14.7893 15.5797 14.4142 15.9547C14.0391 16.3298 13.5304 16.5405 13 16.5405ZM7.7 10.2475L6.29 8.83353L12.583 2.54053H9V0.540527H16V7.54053H14V3.95553L7.7 10.2475Z" fill="#FF4F0A"/>
</svg>
