<svg width="5" height="26" viewBox="0 0 5 26" fill="none" xmlns="http://www.w3.org/2000/svg">
<path d="M4.2681 5.04791C3.78083 5.56027 3.17124 5.81749 2.5 5.81749C1.82876 5.81749 1.22017 5.56131 0.731901 5.04791C0.24463 4.53555 0 3.89458 0 3.18878C0 2.48298 0.243635 1.84305 0.731901 1.32964C1.21917 0.817284 1.82876 0.560059 2.5 0.560059C3.17124 0.560059 3.77983 0.816238 4.2681 1.32964C4.75537 1.842 5 2.48298 5 3.18878C5 3.89458 4.75636 4.5345 4.2681 5.04791ZM4.2681 14.9197C3.78083 15.4321 3.17124 15.6893 2.5 15.6893C1.82876 15.6893 1.22017 15.4331 0.731901 14.9197C0.24463 14.4074 0 13.7664 0 13.0606C0 12.3548 0.243635 11.7149 0.731901 11.2014C1.21917 10.6891 1.82876 10.4319 2.5 10.4319C3.17124 10.4319 3.77983 10.688 4.2681 11.2014C4.75537 11.7138 5 12.3548 5 13.0606C5 13.7664 4.75636 14.4063 4.2681 14.9197ZM4.2681 24.7905C3.78083 25.3028 3.17124 25.5601 2.5 25.5601C1.82876 25.5601 1.22017 25.3039 0.731901 24.7905C0.24463 24.2781 0 23.6371 0 22.9313C0 22.2255 0.243635 21.5856 0.731901 21.0722C1.21917 20.5599 1.82876 20.3026 2.5 20.3026C3.17124 20.3026 3.77983 20.5588 4.2681 21.0722C4.75537 21.5846 5 22.2255 5 22.9313C5 23.6371 4.75636 24.2771 4.2681 24.7905Z" fill="#FF4F0A"/>
</svg>
