<svg width="6" height="25" viewBox="0 0 6 25" fill="currentColor" xmlns="http://www.w3.org/2000/svg">
<path d="M5.09622 4.48785C4.60895 5.00021 3.99937 5.25743 3.32812 5.25743C2.65688 5.25743 2.04829 5.00126 1.56003 4.48785C1.07275 3.97549 0.828125 3.33452 0.828125 2.62872C0.828125 1.92292 1.07176 1.28299 1.56003 0.769585C2.0473 0.257225 2.65688 0 3.32812 0C3.99937 0 4.60796 0.25618 5.09622 0.769585C5.58349 1.28194 5.82812 1.92292 5.82812 2.62872C5.82812 3.33452 5.58449 3.97445 5.09622 4.48785ZM5.09622 14.3597C4.60895 14.872 3.99937 15.1292 3.32812 15.1292C2.65688 15.1292 2.04829 14.8731 1.56003 14.3597C1.07275 13.8473 0.828125 13.2063 0.828125 12.5005C0.828125 11.7947 1.07176 11.1548 1.56003 10.6414C2.0473 10.129 2.65688 9.87181 3.32812 9.87181C3.99937 9.87181 4.60796 10.128 5.09622 10.6414C5.58349 11.1538 5.82812 11.7947 5.82812 12.5005C5.82812 13.2063 5.58449 13.8463 5.09622 14.3597ZM5.09622 24.2304C4.60895 24.7428 3.99937 25 3.32812 25C2.65688 25 2.04829 24.7438 1.56003 24.2304C1.07275 23.7181 0.828125 23.0771 0.828125 22.3713C0.828125 21.6655 1.07176 21.0256 1.56003 20.5122C2.0473 19.9998 2.65688 19.7426 3.32812 19.7426C3.99937 19.7426 4.60796 19.9987 5.09622 20.5122C5.58349 21.0245 5.82812 21.6655 5.82812 22.3713C5.82812 23.0771 5.58449 23.717 5.09622 24.2304Z"/>
</svg>
