<svg width="5" height="21" viewBox="0 0 5 21" fill="none" xmlns="http://www.w3.org/2000/svg">
<path d="M3.8637 4.11176C3.47388 4.52165 2.98621 4.72743 2.44922 4.72743C1.91223 4.72743 1.42535 4.52249 1.03474 4.11176C0.644923 3.70188 0.449219 3.1891 0.449219 2.62446C0.449219 2.05982 0.644127 1.54788 1.03474 1.13715C1.42456 0.727265 1.91223 0.521484 2.44922 0.521484C2.98621 0.521484 3.47308 0.726428 3.8637 1.13715C4.25351 1.54704 4.44922 2.05982 4.44922 2.62446C4.44922 3.1891 4.25431 3.70104 3.8637 4.11176ZM3.8637 12.0092C3.47388 12.4191 2.98621 12.6249 2.44922 12.6249C1.91223 12.6249 1.42535 12.4199 1.03474 12.0092C0.644923 11.5993 0.449219 11.0865 0.449219 10.5219C0.449219 9.95726 0.644127 9.44532 1.03474 9.0346C1.42456 8.62471 1.91223 8.41893 2.44922 8.41893C2.98621 8.41893 3.47308 8.62387 3.8637 9.0346C4.25351 9.44448 4.44922 9.95726 4.44922 10.5219C4.44922 11.0865 4.25431 11.5985 3.8637 12.0092ZM3.8637 19.9058C3.47388 20.3157 2.98621 20.5215 2.44922 20.5215C1.91223 20.5215 1.42535 20.3165 1.03474 19.9058C0.644923 19.4959 0.449219 18.9832 0.449219 18.4185C0.449219 17.8539 0.644127 17.3419 1.03474 16.9312C1.42456 16.5213 1.91223 16.3155 2.44922 16.3155C2.98621 16.3155 3.47308 16.5205 3.8637 16.9312C4.25351 17.3411 4.44922 17.8539 4.44922 18.4185C4.44922 18.9832 4.25431 19.4951 3.8637 19.9058Z" fill="#FF4F0A"/>
</svg>
