<svg width="22" height="22" viewBox="0 0 22 22" fill="none" xmlns="http://www.w3.org/2000/svg">
<circle cx="11" cy="11" r="9" fill="#FF7A00"/>
<g clip-path="url(#clip0_1639_84137)">
<path d="M17 5H5V17H17V5Z" fill="#FF7A00"/>
<path d="M11 11L8.15 8.8625C8.10369 8.82732 8.06608 8.78198 8.04008 8.72996C8.01407 8.67795 8.00036 8.62065 8 8.5625V6.875C8 6.77554 8.03951 6.68016 8.10984 6.60984C8.18016 6.53951 8.27554 6.5 8.375 6.5H13.625C13.7245 6.5 13.8198 6.53951 13.8902 6.60984C13.9605 6.68016 14 6.77554 14 6.875V8.54375C13.9996 8.6019 13.9859 8.6592 13.9599 8.71121C13.9339 8.76323 13.8963 8.80857 13.85 8.84375L11 11Z" stroke="#27272A" stroke-linecap="round" stroke-linejoin="round"/>
<path d="M11 11L8.15 13.1375C8.10369 13.1727 8.06608 13.218 8.04008 13.27C8.01407 13.3221 8.00036 13.3793 8 13.4375V15.125C8 15.2245 8.03951 15.3198 8.10984 15.3902C8.18016 15.4605 8.27554 15.5 8.375 15.5H13.625C13.7245 15.5 13.8198 15.4605 13.8902 15.3902C13.9605 15.3198 14 15.2245 14 15.125V13.4562C13.9996 13.3981 13.9859 13.3408 13.9599 13.2888C13.9339 13.2368 13.8963 13.1914 13.85 13.1563L11 11Z" stroke="#27272A" stroke-linecap="round" stroke-linejoin="round"/>
</g>
<defs>
<clipPath id="clip0_1639_84137">
<rect width="12" height="12" fill="white" transform="translate(5 5)"/>
</clipPath>
</defs>
</svg>
