<svg width="18" height="20" viewBox="0 0 18 20" fill="none" xmlns="http://www.w3.org/2000/svg">
<path d="M16.2 9.1991V3.7001C16.2 3.22271 16.0104 2.76487 15.6728 2.42731C15.3352 2.08974 14.8774 1.9001 14.4 1.9001H10.638C10.26 0.856098 9.27 0.100098 8.1 0.100098C6.93 0.100098 5.94 0.856098 5.562 1.9001H1.8C0.81 1.9001 0 2.7101 0 3.7001V16.3001C0 16.7775 0.189642 17.2353 0.527208 17.5729C0.864773 17.9105 1.32261 18.1001 1.8 18.1001H7.299C8.433 19.2161 9.981 19.9001 11.7 19.9001C15.183 19.9001 18 17.0831 18 13.6001C18 11.8811 17.316 10.3331 16.2 9.1991ZM8.1 1.9001C8.595 1.9001 9 2.3051 9 2.8001C9 3.2951 8.595 3.7001 8.1 3.7001C7.605 3.7001 7.2 3.2951 7.2 2.8001C7.2 2.3051 7.605 1.9001 8.1 1.9001ZM1.8 16.3001V3.7001H3.6V5.5001H12.6V3.7001H14.4V7.9121C13.581 7.5251 12.672 7.3001 11.7 7.3001H3.6V9.1001H7.29C6.75 9.6131 6.336 10.2251 6.012 10.9001H3.6V12.7001H5.472C5.427 12.9971 5.4 13.2941 5.4 13.6001C5.4 14.5721 5.625 15.4811 6.012 16.3001H1.8ZM11.7 18.1001C9.216 18.1001 7.2 16.0841 7.2 13.6001C7.2 11.1161 9.216 9.1001 11.7 9.1001C14.184 9.1001 16.2 11.1161 16.2 13.6001C16.2 16.0841 14.184 18.1001 11.7 18.1001ZM12.15 13.8251L14.724 15.3461L14.049 16.4441L10.8 14.5001V10.0001H12.15V13.8251Z" fill="#FF4F0A"/>
</svg>
