<svg width="14" height="14" viewBox="0 0 14 14" fill="none" xmlns="http://www.w3.org/2000/svg">
<path d="M1.54583 7.56348H6.14125V12.1589C6.14125 12.626 6.52546 13.0177 7.00007 13.0177C7.47468 13.0177 7.85889 12.626 7.85889 12.1589V7.56348H12.4543C12.9214 7.56348 13.3131 7.17927 13.3131 6.70466C13.3131 6.23005 12.9214 5.84584 12.4543 5.84584H7.85889V1.25042C7.85889 0.783343 7.47468 0.391602 7.00007 0.391602C6.52546 0.391602 6.14125 0.783343 6.14125 1.25042V5.84584H1.54583C1.07875 5.84584 0.687012 6.23005 0.687012 6.70466C0.687012 7.17927 1.07875 7.56348 1.54583 7.56348Z" fill="black"/>
</svg>
