<svg width="24" height="24" viewBox="0 0 24 24" fill="none" xmlns="http://www.w3.org/2000/svg">
<path d="M6.54422 8.163C6.43797 8.13489 6.3392 8.08378 6.25489 8.01327C6.17058 7.94277 6.1028 7.8546 6.05634 7.755C6.00988 7.6554 5.98588 7.5468 5.98603 7.4369C5.98618 7.327 6.01049 7.21847 6.05722 7.119L7.71722 3.584C7.77768 3.45455 7.87386 3.34506 7.99444 3.26842C8.11502 3.19178 8.25499 3.15117 8.39786 3.15138C8.54074 3.15159 8.68058 3.19261 8.80093 3.2696C8.92128 3.3466 9.01714 3.45637 9.07722 3.586L9.80922 5.155C9.83537 5.14451 9.86207 5.1355 9.88922 5.128C11.6162 4.66547 13.4474 4.78366 15.1006 5.46436C16.7538 6.14506 18.1374 7.3505 19.038 8.89494C19.9387 10.4394 20.3065 12.2371 20.0848 14.0112C19.863 15.7853 19.0641 17.4372 17.8111 18.7125C16.558 19.9878 14.9204 20.8157 13.1505 21.0686C11.3806 21.3215 9.57667 20.9854 8.01661 20.1121C6.45655 19.2387 5.22695 17.8767 4.51726 16.2357C3.80756 14.5947 3.65716 12.7659 4.08922 11.031C4.11312 10.9354 4.15562 10.8454 4.21429 10.7663C4.27295 10.6871 4.34664 10.6202 4.43114 10.5695C4.51564 10.5188 4.6093 10.4853 4.70678 10.4708C4.80425 10.4563 4.90362 10.4611 4.99922 10.485C5.09483 10.5089 5.18478 10.5514 5.26396 10.6101C5.34314 10.6687 5.40999 10.7424 5.46069 10.8269C5.51139 10.9114 5.54495 11.0051 5.55946 11.1026C5.57396 11.2 5.56912 11.2994 5.54522 11.395C5.19484 12.8031 5.31465 14.2872 5.88639 15.6209C6.45813 16.9546 7.4504 18.0647 8.71187 18.7818C9.97333 19.499 11.4348 19.7838 12.8732 19.593C14.3117 19.4021 15.6482 18.7459 16.679 17.7246C17.7098 16.7033 18.3782 15.3728 18.5823 13.9362C18.7864 12.4996 18.5151 11.0356 17.8096 9.76756C17.1041 8.49954 16.0032 7.49708 14.6748 6.91308C13.3464 6.32908 11.8635 6.1956 10.4522 6.533L11.1922 8.116C11.2528 8.24528 11.2752 8.38917 11.2568 8.53076C11.2385 8.67235 11.1801 8.80574 11.0885 8.91528C10.9969 9.02481 10.876 9.10593 10.7399 9.14911C10.6038 9.19228 10.4582 9.19571 10.3202 9.159L6.54422 8.163Z" fill="white"/>
</svg>
