<svg width="32" height="32" viewBox="0 0 32 32" fill="none" xmlns="http://www.w3.org/2000/svg">
<path d="M12.0007 6.667C11.647 6.667 11.3079 6.80748 11.0578 7.05753C10.8078 7.30758 10.6673 7.64672 10.6673 8.00034C10.6673 8.35396 10.8078 8.6931 11.0578 8.94315C11.3079 9.19319 11.647 9.33367 12.0007 9.33367C12.3543 9.33367 12.6934 9.19319 12.9435 8.94315C13.1935 8.6931 13.334 8.35396 13.334 8.00034C13.334 7.64672 13.1935 7.30758 12.9435 7.05753C12.6934 6.80748 12.3543 6.667 12.0007 6.667ZM8.22732 6.667C8.50279 5.88629 9.01364 5.21025 9.68945 4.73206C10.3653 4.25386 11.1728 3.99707 12.0007 3.99707C12.8285 3.99707 13.636 4.25386 14.3119 4.73206C14.9877 5.21025 15.4985 5.88629 15.774 6.667H25.334C25.6876 6.667 26.0267 6.80748 26.2768 7.05753C26.5268 7.30758 26.6673 7.64672 26.6673 8.00034C26.6673 8.35396 26.5268 8.6931 26.2768 8.94315C26.0267 9.19319 25.6876 9.33367 25.334 9.33367H15.774C15.4985 10.1144 14.9877 10.7904 14.3119 11.2686C13.636 11.7468 12.8285 12.0036 12.0007 12.0036C11.1728 12.0036 10.3653 11.7468 9.68945 11.2686C9.01364 10.7904 8.50279 10.1144 8.22732 9.33367H6.66732C6.3137 9.33367 5.97456 9.19319 5.72451 8.94315C5.47446 8.6931 5.33398 8.35396 5.33398 8.00034C5.33398 7.64672 5.47446 7.30758 5.72451 7.05753C5.97456 6.80748 6.3137 6.667 6.66732 6.667H8.22732ZM20.0007 14.667C19.647 14.667 19.3079 14.8075 19.0578 15.0575C18.8078 15.3076 18.6673 15.6467 18.6673 16.0003C18.6673 16.354 18.8078 16.6931 19.0578 16.9431C19.3079 17.1932 19.647 17.3337 20.0007 17.3337C20.3543 17.3337 20.6934 17.1932 20.9435 16.9431C21.1935 16.6931 21.334 16.354 21.334 16.0003C21.334 15.6467 21.1935 15.3076 20.9435 15.0575C20.6934 14.8075 20.3543 14.667 20.0007 14.667ZM16.2273 14.667C16.5028 13.8863 17.0136 13.2102 17.6895 12.7321C18.3653 12.2539 19.1728 11.9971 20.0007 11.9971C20.8285 11.9971 21.636 12.2539 22.3119 12.7321C22.9877 13.2102 23.4985 13.8863 23.774 14.667H25.334C25.6876 14.667 26.0267 14.8075 26.2768 15.0575C26.5268 15.3076 26.6673 15.6467 26.6673 16.0003C26.6673 16.354 26.5268 16.6931 26.2768 16.9431C26.0267 17.1932 25.6876 17.3337 25.334 17.3337H23.774C23.4985 18.1144 22.9877 18.7904 22.3119 19.2686C21.636 19.7468 20.8285 20.0036 20.0007 20.0036C19.1728 20.0036 18.3653 19.7468 17.6895 19.2686C17.0136 18.7904 16.5028 18.1144 16.2273 17.3337H6.66732C6.3137 17.3337 5.97456 17.1932 5.72451 16.9431C5.47446 16.6931 5.33398 16.354 5.33398 16.0003C5.33398 15.6467 5.47446 15.3076 5.72451 15.0575C5.97456 14.8075 6.3137 14.667 6.66732 14.667H16.2273ZM12.0007 22.667C11.647 22.667 11.3079 22.8075 11.0578 23.0575C10.8078 23.3076 10.6673 23.6467 10.6673 24.0003C10.6673 24.354 10.8078 24.6931 11.0578 24.9431C11.3079 25.1932 11.647 25.3337 12.0007 25.3337C12.3543 25.3337 12.6934 25.1932 12.9435 24.9431C13.1935 24.6931 13.334 24.354 13.334 24.0003C13.334 23.6467 13.1935 23.3076 12.9435 23.0575C12.6934 22.8075 12.3543 22.667 12.0007 22.667ZM8.22732 22.667C8.50279 21.8863 9.01364 21.2102 9.68945 20.7321C10.3653 20.2539 11.1728 19.9971 12.0007 19.9971C12.8285 19.9971 13.636 20.2539 14.3119 20.7321C14.9877 21.2102 15.4985 21.8863 15.774 22.667H25.334C25.6876 22.667 26.0267 22.8075 26.2768 23.0575C26.5268 23.3076 26.6673 23.6467 26.6673 24.0003C26.6673 24.354 26.5268 24.6931 26.2768 24.9431C26.0267 25.1932 25.6876 25.3337 25.334 25.3337H15.774C15.4985 26.1144 14.9877 26.7904 14.3119 27.2686C13.636 27.7468 12.8285 28.0036 12.0007 28.0036C11.1728 28.0036 10.3653 27.7468 9.68945 27.2686C9.01364 26.7904 8.50279 26.1144 8.22732 25.3337H6.66732C6.3137 25.3337 5.97456 25.1932 5.72451 24.9431C5.47446 24.6931 5.33398 24.354 5.33398 24.0003C5.33398 23.6467 5.47446 23.3076 5.72451 23.0575C5.97456 22.8075 6.3137 22.667 6.66732 22.667H8.22732Z" fill="white"/>
</svg>
