<svg width="32" height="32" viewBox="0 0 32 32" fill="none" xmlns="http://www.w3.org/2000/svg">
<path d="M3.49371 3.3792C3.61314 3.28161 3.75824 3.22063 3.91153 3.2036C4.06482 3.18657 4.21976 3.21421 4.3577 3.2832L28.3577 15.2832C28.4908 15.3495 28.6028 15.4517 28.6811 15.5782C28.7594 15.7047 28.8009 15.8505 28.8009 15.9992C28.8009 16.1479 28.7594 16.2937 28.6811 16.4202C28.6028 16.5467 28.4908 16.6488 28.3577 16.7152L4.3577 28.7152C4.2199 28.7842 4.06509 28.812 3.9119 28.7951C3.7587 28.7782 3.61364 28.7175 3.49415 28.6201C3.37466 28.5228 3.28584 28.393 3.23836 28.2464C3.19088 28.0997 3.18676 27.9425 3.2265 27.7936L6.37211 16L3.2265 4.2064C3.18657 4.05743 3.19054 3.9001 3.23795 3.75334C3.28535 3.60658 3.37417 3.47665 3.49371 3.3792ZM7.8137 16.8L5.2313 26.4896L26.2105 16L5.22971 5.5104L7.8137 15.2H18.3993C18.6115 15.2 18.815 15.2843 18.965 15.4343C19.115 15.5843 19.1993 15.7878 19.1993 16C19.1993 16.2122 19.115 16.4157 18.965 16.5657C18.815 16.7157 18.6115 16.8 18.3993 16.8H7.8137Z" fill="#A7A7A7"/>
</svg>
