<svg width="32" height="32" viewBox="0 0 32 32" fill="none" xmlns="http://www.w3.org/2000/svg">
<rect width="32" height="32" rx="5" fill="#5BBF83"/>
<path d="M8.18404 8.1128C8.25868 8.05181 8.34937 8.0137 8.44516 8.00306C8.54096 7.99241 8.6378 8.00969 8.72401 8.0528L23.7231 15.5525C23.8063 15.5939 23.8762 15.6578 23.9252 15.7368C23.9741 15.8159 24 15.907 24 15.9999C24 16.0929 23.9741 16.184 23.9252 16.2631C23.8762 16.3421 23.8063 16.4059 23.7231 16.4474L8.72401 23.9471C8.63789 23.9902 8.54114 24.0075 8.44539 23.997C8.34965 23.9865 8.25899 23.9485 8.18432 23.8876C8.10964 23.8268 8.05413 23.7457 8.02446 23.6541C7.99479 23.5624 7.99221 23.4642 8.01705 23.3711L9.98293 16.0004L8.01705 8.62978C7.99209 8.53668 7.99458 8.43835 8.0242 8.34663C8.05383 8.25491 8.10934 8.17371 8.18404 8.1128ZM10.8839 16.5004L9.26997 22.5561L22.3811 16.0004L9.26897 9.44474L10.8839 15.5005H17.4994C17.632 15.5005 17.7592 15.5531 17.853 15.6469C17.9467 15.7407 17.9994 15.8678 17.9994 16.0004C17.9994 16.133 17.9467 16.2602 17.853 16.354C17.7592 16.4477 17.632 16.5004 17.4994 16.5004H10.8839Z" fill="white"/>
</svg>
