<svg width="15" height="9" viewBox="0 0 10 6" fill="none" xmlns="http://www.w3.org/2000/svg">
<path d="M5 0C5.11958 0 5.23528 0.0229015 5.34709 0.0687027C5.45949 0.114504 5.55306 0.175573 5.6278 0.251909L9.75336 4.46565C9.91779 4.63359 10 4.84733 10 5.10687C10 5.36641 9.91779 5.58015 9.75336 5.74809C9.58894 5.91603 9.37967 6 9.12556 6C8.87145 6 8.66218 5.91603 8.49776 5.74809L5 2.17557L1.50224 5.74809C1.33782 5.91603 1.12855 6 0.874439 6C0.620329 6 0.411062 5.91603 0.246638 5.74809C0.0822134 5.58015 0 5.36641 0 5.10687C0 4.84733 0.0822134 4.63359 0.246638 4.46565L4.3722 0.251909C4.46188 0.160306 4.55904 0.0955729 4.66368 0.0577106C4.76831 0.019237 4.88042 0 5 0Z" fill="white"/>
</svg>
