<svg width="18" height="18" viewBox="0 0 18 18" fill="none" xmlns="http://www.w3.org/2000/svg">
<path d="M13.9993 8.01666C13.7783 8.01666 13.5664 8.10445 13.4101 8.26073C13.2538 8.41701 13.166 8.62898 13.166 8.84999V14.8333C13.166 15.0543 13.0782 15.2663 12.9219 15.4226C12.7657 15.5789 12.5537 15.6667 12.3327 15.6667H3.16602C2.945 15.6667 2.73304 15.5789 2.57676 15.4226C2.42048 15.2663 2.33268 15.0543 2.33268 14.8333V5.66666C2.33268 5.44564 2.42048 5.23368 2.57676 5.0774C2.73304 4.92112 2.945 4.83332 3.16602 4.83332H9.14935C9.37036 4.83332 9.58232 4.74553 9.7386 4.58925C9.89489 4.43296 9.98268 4.221 9.98268 3.99999C9.98268 3.77898 9.89489 3.56701 9.7386 3.41073C9.58232 3.25445 9.37036 3.16666 9.14935 3.16666H3.16602C2.50297 3.16666 1.86709 3.43005 1.39825 3.89889C0.929408 4.36773 0.666016 5.00362 0.666016 5.66666V14.8333C0.666016 15.4964 0.929408 16.1322 1.39825 16.6011C1.86709 17.0699 2.50297 17.3333 3.16602 17.3333H12.3327C12.9957 17.3333 13.6316 17.0699 14.1004 16.6011C14.5693 16.1322 14.8327 15.4964 14.8327 14.8333V8.84999C14.8327 8.62898 14.7449 8.41701 14.5886 8.26073C14.4323 8.10445 14.2204 8.01666 13.9993 8.01666ZM17.266 1.18332C17.1815 0.979699 17.0196 0.817886 16.816 0.733323C16.7158 0.690622 16.6082 0.667973 16.4993 0.666656H11.4993C11.2783 0.666656 11.0664 0.754454 10.9101 0.910734C10.7538 1.06701 10.666 1.27898 10.666 1.49999C10.666 1.721 10.7538 1.93297 10.9101 2.08925C11.0664 2.24553 11.2783 2.33332 11.4993 2.33332H14.491L5.90768 10.9083C5.82958 10.9858 5.76758 11.078 5.72527 11.1795C5.68297 11.2811 5.66118 11.39 5.66118 11.5C5.66118 11.61 5.68297 11.7189 5.72527 11.8205C5.76758 11.922 5.82958 12.0142 5.90768 12.0917C5.98515 12.1698 6.07732 12.2318 6.17887 12.2741C6.28042 12.3164 6.38934 12.3382 6.49935 12.3382C6.60936 12.3382 6.71828 12.3164 6.81983 12.2741C6.92138 12.2318 7.01355 12.1698 7.09102 12.0917L15.666 3.50832V6.49999C15.666 6.721 15.7538 6.93296 15.9101 7.08925C16.0664 7.24553 16.2783 7.33332 16.4993 7.33332C16.7204 7.33332 16.9323 7.24553 17.0886 7.08925C17.2449 6.93296 17.3327 6.721 17.3327 6.49999V1.49999C17.3314 1.39109 17.3087 1.28351 17.266 1.18332Z" fill="white"/>
</svg>
