<svg width="18" height="18" viewBox="0 0 18 18" fill="none" xmlns="http://www.w3.org/2000/svg">
<path d="M13.9954 8.0165C13.7744 8.0165 13.5625 8.1043 13.4062 8.26058C13.2499 8.41686 13.1621 8.62882 13.1621 8.84984V14.8332C13.1621 15.0542 13.0743 15.2661 12.918 15.4224C12.7618 15.5787 12.5498 15.6665 12.3288 15.6665H3.16211C2.9411 15.6665 2.72913 15.5787 2.57285 15.4224C2.41657 15.2661 2.32878 15.0542 2.32878 14.8332V5.6665C2.32878 5.44549 2.41657 5.23353 2.57285 5.07725C2.72913 4.92097 2.9411 4.83317 3.16211 4.83317H9.14544C9.36646 4.83317 9.57842 4.74537 9.7347 4.58909C9.89098 4.43281 9.97878 4.22085 9.97878 3.99984C9.97878 3.77882 9.89098 3.56686 9.7347 3.41058C9.57842 3.2543 9.36646 3.1665 9.14544 3.1665H3.16211C2.49907 3.1665 1.86318 3.4299 1.39434 3.89874C0.925502 4.36758 0.662109 5.00346 0.662109 5.6665V14.8332C0.662109 15.4962 0.925502 16.1321 1.39434 16.6009C1.86318 17.0698 2.49907 17.3332 3.16211 17.3332H12.3288C12.9918 17.3332 13.6277 17.0698 14.0965 16.6009C14.5654 16.1321 14.8288 15.4962 14.8288 14.8332V8.84984C14.8288 8.62882 14.741 8.41686 14.5847 8.26058C14.4284 8.1043 14.2165 8.0165 13.9954 8.0165ZM17.2621 1.18317C17.1775 0.979546 17.0157 0.817733 16.8121 0.733171C16.7119 0.69047 16.6043 0.667821 16.4954 0.666504H11.4954C11.2744 0.666504 11.0625 0.754301 10.9062 0.910582C10.7499 1.06686 10.6621 1.27882 10.6621 1.49984C10.6621 1.72085 10.7499 1.93281 10.9062 2.08909C11.0625 2.24537 11.2744 2.33317 11.4954 2.33317H14.4871L5.90378 10.9082C5.82567 10.9856 5.76367 11.0778 5.72137 11.1794C5.67906 11.2809 5.65728 11.3898 5.65728 11.4998C5.65728 11.6098 5.67906 11.7188 5.72137 11.8203C5.76367 11.9219 5.82567 12.014 5.90378 12.0915C5.98125 12.1696 6.07341 12.2316 6.17496 12.2739C6.27651 12.3162 6.38543 12.338 6.49544 12.338C6.60545 12.338 6.71437 12.3162 6.81592 12.2739C6.91747 12.2316 7.00964 12.1696 7.08711 12.0915L15.6621 3.50817V6.49984C15.6621 6.72085 15.7499 6.93281 15.9062 7.08909C16.0625 7.24537 16.2744 7.33317 16.4954 7.33317C16.7165 7.33317 16.9284 7.24537 17.0847 7.08909C17.241 6.93281 17.3288 6.72085 17.3288 6.49984V1.49984C17.3275 1.39094 17.3048 1.28336 17.2621 1.18317Z" fill="#FF4F0A"/>
</svg>
