<svg width="17" height="5" viewBox="0 0 17 5" fill="none" xmlns="http://www.w3.org/2000/svg">
<path d="M12.9004 2.5C12.9004 1.96957 13.111 1.46086 13.4859 1.08579C13.8608 0.710714 14.3692 0.5 14.8993 0.5C15.4295 0.5 15.9379 0.710714 16.3127 1.08579C16.6876 1.46086 16.8982 1.96957 16.8982 2.5C16.8982 3.03043 16.6876 3.53914 16.3127 3.91421C15.9379 4.28929 15.4295 4.5 14.8993 4.5C14.3692 4.5 13.8608 4.28929 13.4859 3.91421C13.111 3.53914 12.9004 3.03043 12.9004 2.5ZM6.90384 2.5C6.90384 1.96957 7.11443 1.46086 7.48929 1.08579C7.86415 0.710714 8.37257 0.5 8.90271 0.5C9.43284 0.5 9.94126 0.710714 10.3161 1.08579C10.691 1.46086 10.9016 1.96957 10.9016 2.5C10.9016 3.03043 10.691 3.53914 10.3161 3.91421C9.94126 4.28929 9.43284 4.5 8.90271 4.5C8.37257 4.5 7.86415 4.28929 7.48929 3.91421C7.11443 3.53914 6.90384 3.03043 6.90384 2.5ZM0.907227 2.5C0.907227 1.96957 1.11782 1.46086 1.49268 1.08579C1.86754 0.710714 2.37596 0.5 2.9061 0.5C3.43623 0.5 3.94465 0.710714 4.31951 1.08579C4.69437 1.46086 4.90497 1.96957 4.90497 2.5C4.90497 3.03043 4.69437 3.53914 4.31951 3.91421C3.94465 4.28929 3.43623 4.5 2.9061 4.5C2.37596 4.5 1.86754 4.28929 1.49268 3.91421C1.11782 3.53914 0.907227 3.03043 0.907227 2.5Z" fill="white"/>
</svg>
