<svg width="115" height="97" viewBox="0 0 115 97" fill="none" xmlns="http://www.w3.org/2000/svg">
<g id="ri:upload-cloud-fill">
<path id="Vector" d="M33.6869 84.5173C27.1818 84.0967 21.0008 81.956 16.0265 78.4009C11.0522 74.8458 7.539 70.0581 5.98847 64.7214C4.43793 59.3847 4.92938 53.7718 7.39263 48.6844C9.85589 43.5969 14.165 39.2949 19.7047 36.3926C20.8834 28.6529 25.3709 21.5401 32.3274 16.3854C39.2838 11.2306 48.2324 8.38721 57.4986 8.38721C66.7648 8.38721 75.7134 11.2306 82.6699 16.3854C89.6263 21.5401 94.1138 28.6529 95.2925 36.3926C100.832 39.2949 105.141 43.5969 107.605 48.6844C110.068 53.7718 110.559 59.3847 109.009 64.7214C107.458 70.0581 103.945 74.8458 98.9707 78.4009C93.9964 81.956 87.8154 84.0967 81.3103 84.5173V84.5935H33.6869V84.5173ZM62.2609 52.5104H76.548L57.4986 32.4584L38.4492 52.5104H52.7363V68.5519H62.2609V52.5104Z" fill="#FF4F0A"/>
</g>
</svg>
