<svg width="32" height="32" viewBox="0 0 32 32" fill="none" xmlns="http://www.w3.org/2000/svg">
<rect width="32" height="32" rx="5" fill="#5757AC"/>
<path d="M24.561 10.0525C24.1697 9.36244 23.5393 8.83953 22.7888 8.5825C22.002 8.3125 21.327 7.795 20.8973 7.0825C20.6095 6.60133 20.2022 6.20274 19.7149 5.92546C19.2276 5.64817 18.6769 5.50161 18.1163 5.5C17.6633 5.5 17.2335 5.5975 16.8405 5.7625C16.3065 5.995 15.7058 5.995 15.1718 5.7625C14.7657 5.59161 14.3299 5.50241 13.8893 5.5C12.7245 5.5 11.7083 6.115 11.1293 7.0375C10.6791 7.75958 9.99675 8.30707 9.19427 8.59C8.41084 8.86578 7.76133 9.42871 7.37702 10.165C7.09876 10.7001 6.97046 11.3005 7.00572 11.9026C7.04097 12.5047 7.23847 13.086 7.57727 13.585C7.82252 13.945 7.95602 14.3725 7.95602 14.8075V15.6595C8.35652 15.3767 7.99352 16.2183 7.93727 16.4635V20.4895C7.93727 21.7383 8.68127 22.8505 9.81227 23.3125H22.1873C23.3183 22.8505 24.0623 21.7375 24.0623 20.4895V16.8385C23.964 16.4583 23.3783 15.196 24.0345 15.6528V14.8075C24.0345 14.3725 24.168 13.945 24.4125 13.585C24.7681 13.0702 24.9707 12.4653 24.997 11.8402C25.0233 11.2151 24.8721 10.5953 24.561 10.0525Z" fill="#212121"/>
<path d="M11.5 17.5C11.5 17.7955 11.4418 18.0881 11.3287 18.361C11.2157 18.634 11.0499 18.8821 10.841 19.091C10.6321 19.2999 10.384 19.4657 10.111 19.5787C9.83806 19.6918 9.54547 19.75 9.25 19.75C8.95453 19.75 8.66194 19.6918 8.38896 19.5787C8.11598 19.4657 7.86794 19.2999 7.65901 19.091C7.45008 18.8821 7.28434 18.634 7.17127 18.361C7.0582 18.0881 7 17.7955 7 17.5C7 16.9033 7.23705 16.331 7.65901 15.909C8.08097 15.4871 8.65326 15.25 9.25 15.25C9.84674 15.25 10.419 15.4871 10.841 15.909C11.2629 16.331 11.5 16.9033 11.5 17.5ZM25 17.5C25 17.7955 24.9418 18.0881 24.8287 18.361C24.7157 18.634 24.5499 18.8821 24.341 19.091C24.1321 19.2999 23.884 19.4657 23.611 19.5787C23.3381 19.6918 23.0455 19.75 22.75 19.75C22.4545 19.75 22.1619 19.6918 21.889 19.5787C21.616 19.4657 21.3679 19.2999 21.159 19.091C20.9501 18.8821 20.7843 18.634 20.6713 18.361C20.5582 18.0881 20.5 17.7955 20.5 17.5C20.5 16.9033 20.7371 16.331 21.159 15.909C21.581 15.4871 22.1533 15.25 22.75 15.25C23.3467 15.25 23.919 15.4871 24.341 15.909C24.7629 16.331 25 16.9033 25 17.5Z" fill="#F4C6AD"/>
<path d="M8.83203 15.2807L9.25428 21.7375C9.42732 23.0559 10.0742 24.2662 11.0743 25.1426C12.0743 26.019 13.3591 26.5015 14.6888 26.5H17.3265C18.6561 26.5013 19.9407 26.0187 20.9406 25.1424C21.9404 24.266 22.5873 23.0558 22.7603 21.7375L23.1638 15.2912L23.127 15.2845L23.2133 13.8475C23.1983 12.775 22.353 11.89 21.2858 11.845H19.3275C18.672 11.8441 18.0309 11.653 17.4819 11.2948C16.9329 10.9367 16.4996 10.427 16.2345 9.82749C16.1659 9.65524 16.0473 9.50746 15.894 9.4032C15.7407 9.29894 15.5597 9.24297 15.3743 9.24249H13.5938C11.013 9.24249 8.87628 11.3575 8.87628 13.9675V15.274C8.8615 15.2763 8.84675 15.2781 8.83203 15.2807Z" fill="#FFD7C2"/>
<path d="M15.4639 17.1452L14.7214 19.5227C14.6862 19.6362 14.6783 19.7563 14.6983 19.8734C14.7183 19.9904 14.7657 20.1011 14.8366 20.1964C14.9076 20.2916 15 20.3688 15.1064 20.4216C15.2128 20.4743 15.3302 20.5012 15.4489 20.5H16.5484C17.0644 20.5 17.4282 20.0035 17.2759 19.522L16.5334 17.1445C16.3737 16.6187 15.6312 16.6187 15.4639 17.1445V17.1452Z" fill="#E5AF93"/>
<path d="M16 21.9212C15.3268 21.9256 14.6624 21.7682 14.0627 21.4622C13.8715 21.3647 13.6652 21.5807 13.786 21.7547C14.0284 22.1197 14.3575 22.4188 14.7439 22.6252C15.1303 22.8316 15.5619 22.9389 16 22.9375C16.4381 22.9389 16.8697 22.8316 17.2561 22.6252C17.6425 22.4188 17.9716 22.1197 18.214 21.7547C18.334 21.574 18.1285 21.3647 17.9372 21.4622C17.3379 21.769 16.6733 21.9265 16 21.9212Z" fill="#990838"/>
<path d="M10.7609 17.0252C10.8693 16.5948 11.1209 16.214 11.4745 15.9455C11.828 15.677 12.2624 15.5369 12.7062 15.548C13.1499 15.5592 13.5767 15.7211 13.9163 16.007C14.2559 16.2929 14.488 16.6859 14.5746 17.1212C14.5831 17.1678 14.5813 17.2156 14.5691 17.2613C14.557 17.307 14.5349 17.3495 14.5045 17.3857C14.474 17.4219 14.4359 17.4509 14.393 17.4707C14.35 17.4904 14.3032 17.5004 14.2559 17.5H11.1381C11.0796 17.5006 11.0218 17.4879 10.969 17.4627C10.9161 17.4376 10.8698 17.4007 10.8334 17.3549C10.797 17.3091 10.7715 17.2556 10.759 17.1985C10.7464 17.1413 10.7471 17.0821 10.7609 17.0252ZM21.2384 17.0252C21.1304 16.6042 20.8857 16.2309 20.5427 15.9639C20.1997 15.6969 19.7778 15.5513 19.3431 15.55C18.8908 15.5489 18.4521 15.7051 18.1022 15.9919C17.7523 16.2787 17.5131 16.6782 17.4254 17.122C17.417 17.1684 17.419 17.2161 17.4311 17.2617C17.4432 17.3072 17.4653 17.3496 17.4956 17.3857C17.526 17.4217 17.5639 17.4507 17.6068 17.4705C17.6496 17.4902 17.6962 17.5003 17.7434 17.5H20.8611C20.9196 17.5006 20.9775 17.4879 21.0303 17.4627C21.0831 17.4376 21.1295 17.4007 21.1659 17.3549C21.2023 17.3091 21.2277 17.2556 21.2403 17.1985C21.2529 17.1413 21.2522 17.0821 21.2384 17.0252Z" fill="white"/>
<path d="M11.6961 17.1678C11.6961 16.9897 11.7342 16.8138 11.8078 16.6517C11.8815 16.4896 11.989 16.3451 12.1231 16.228C12.2571 16.1109 12.4147 16.0238 12.5853 15.9726C12.7558 15.9214 12.9353 15.9073 13.1117 15.9312C13.2881 15.9551 13.4574 16.0165 13.6081 16.1113C13.7589 16.206 13.8876 16.3319 13.9857 16.4805C14.0837 16.6291 14.1489 16.7969 14.1767 16.9728C14.2046 17.1486 14.1944 17.3284 14.1471 17.5H11.7403C11.7104 17.3918 11.696 17.28 11.6961 17.1678ZM20.3076 17.1678C20.3076 16.4733 19.7451 15.919 19.0566 15.919C18.8925 15.9181 18.73 15.9498 18.5783 16.0123C18.4266 16.0748 18.2889 16.1668 18.1731 16.283C18.0574 16.3992 17.9658 16.5373 17.9039 16.6892C17.8419 16.8411 17.8108 17.0037 17.8123 17.1678C17.8123 17.2855 17.8273 17.3965 17.8573 17.5H20.2633C20.2933 17.389 20.3083 17.2855 20.3083 17.1678H20.3076Z" fill="#7D4533"/>
<path d="M12.9457 16.4583C13.0683 16.4579 13.1888 16.4893 13.2956 16.5494C13.4025 16.6094 13.4919 16.6961 13.5553 16.801C13.6188 16.9058 13.654 17.0253 13.6575 17.1478C13.6611 17.2703 13.6329 17.3916 13.5757 17.5H12.3165C12.2593 17.3916 12.2311 17.2703 12.2347 17.1478C12.2382 17.0253 12.2735 16.9058 12.3369 16.801C12.4003 16.6961 12.4898 16.6094 12.5966 16.5494C12.7034 16.4893 12.8239 16.4579 12.9465 16.4583H12.9457ZM19.0477 16.4583C18.9252 16.4579 18.8046 16.4893 18.6978 16.5494C18.591 16.6094 18.5015 16.6961 18.4381 16.801C18.3747 16.9058 18.3395 17.0253 18.3359 17.1478C18.3324 17.2703 18.3605 17.3916 18.4177 17.5H19.677C19.7342 17.3916 19.7624 17.2703 19.7588 17.1478C19.7552 17.0253 19.72 16.9058 19.6566 16.801C19.5932 16.6961 19.5037 16.6094 19.3969 16.5494C19.2901 16.4893 19.1703 16.4579 19.0477 16.4583Z" fill="black"/>
<path d="M12.7362 16.69C12.7362 16.8145 12.6372 16.915 12.515 16.915C12.4856 16.9148 12.4566 16.9089 12.4296 16.8974C12.4025 16.886 12.378 16.8694 12.3574 16.8485C12.3368 16.8276 12.3205 16.8029 12.3094 16.7757C12.2984 16.7485 12.2928 16.7194 12.293 16.69C12.293 16.5655 12.392 16.465 12.515 16.465C12.6372 16.465 12.737 16.5655 12.737 16.69H12.7362ZM18.8832 16.69C18.8832 16.8145 18.7835 16.915 18.6605 16.915C18.6311 16.9148 18.6021 16.9089 18.5751 16.8974C18.548 16.886 18.5235 16.8694 18.5029 16.8485C18.4823 16.8276 18.466 16.8029 18.4549 16.7757C18.4439 16.7485 18.4383 16.7194 18.4385 16.69C18.4385 16.5655 18.5382 16.465 18.6605 16.465C18.7835 16.465 18.8832 16.5655 18.8832 16.69Z" fill="white"/>
<path d="M20.2578 13.1297C20.6891 13.2647 20.9741 13.4912 21.2193 13.705C21.2969 13.7726 21.3444 13.8683 21.3515 13.971C21.3585 14.0737 21.3245 14.1749 21.2568 14.2525C21.1892 14.3301 21.0935 14.3776 20.9909 14.3846C20.8882 14.3917 20.7869 14.3576 20.7093 14.29C20.4896 14.098 20.3021 13.9562 20.0246 13.8692C19.7411 13.78 19.3293 13.7372 18.6566 13.8197C18.606 13.826 18.5547 13.8221 18.5056 13.8085C18.4565 13.7949 18.4106 13.7717 18.3704 13.7404C18.3303 13.709 18.2967 13.67 18.2716 13.6257C18.2465 13.5813 18.2304 13.5324 18.2242 13.4819C18.218 13.4313 18.2218 13.38 18.2354 13.3309C18.2491 13.2818 18.2722 13.2359 18.3036 13.1957C18.335 13.1556 18.374 13.122 18.4183 13.0969C18.4627 13.0718 18.5115 13.0557 18.5621 13.0495C19.2993 12.9595 19.8333 12.9955 20.2578 13.1297ZM11.7663 13.2902C11.5368 13.3802 11.3561 13.477 11.2301 13.5527L11.0216 13.6907C10.9402 13.7537 10.8872 13.8464 10.8742 13.9484C10.8612 14.0505 10.8893 14.1535 10.9522 14.2349C11.0152 14.3162 11.1079 14.3692 11.2099 14.3823C11.312 14.3953 11.415 14.3672 11.4963 14.3042L11.5001 14.3012L11.5226 14.2847C11.6883 14.1759 11.8647 14.0844 12.0491 14.0117C12.5311 13.8221 13.053 13.7561 13.5671 13.8197C13.6692 13.8323 13.7722 13.8037 13.8533 13.7404C13.9343 13.677 13.9869 13.584 13.9995 13.4819C14.012 13.3797 13.9834 13.2768 13.9201 13.1957C13.8567 13.1146 13.7637 13.062 13.6616 13.0495C13.0196 12.9705 12.3681 13.0532 11.7663 13.2902Z" fill="#212121"/>
</svg>
